<mxfile host="app.diagrams.net" modified="2021-10-13T01:46:45.440Z" agent="5.0 (Windows NT 10.0; Win64; x64) AppleWebKit/537.36 (KHTML, like Gecko) Chrome/94.0.4606.81 Safari/537.36" etag="yYTg8MWkiptWnqQKmBRS" version="15.2.7" type="github">
  <diagram id="kvhHsFNAe7Wy4NFVPUG2" name="第 1 页">
    <mxGraphModel dx="782" dy="446" grid="1" gridSize="10" guides="1" tooltips="1" connect="1" arrows="1" fold="1" page="1" pageScale="1" pageWidth="827" pageHeight="1169" math="0" shadow="0">
      <root>
        <mxCell id="0" />
        <mxCell id="1" parent="0" />
        <mxCell id="lil-dD8LJXTdzVfpWFAo-2" value="IDEA" style="rounded=1;whiteSpace=wrap;html=1;" parent="1" vertex="1">
          <mxGeometry x="100" y="200" width="120" height="60" as="geometry" />
        </mxCell>
        <mxCell id="lil-dD8LJXTdzVfpWFAo-3" value="GitLab" style="rounded=1;whiteSpace=wrap;html=1;" parent="1" vertex="1">
          <mxGeometry x="270" y="200" width="120" height="60" as="geometry" />
        </mxCell>
        <mxCell id="lil-dD8LJXTdzVfpWFAo-4" value="Jebkins" style="rounded=1;whiteSpace=wrap;html=1;" parent="1" vertex="1">
          <mxGeometry x="420" y="200" width="120" height="60" as="geometry" />
        </mxCell>
        <mxCell id="lil-dD8LJXTdzVfpWFAo-5" value="Docker" style="rounded=1;whiteSpace=wrap;html=1;" parent="1" vertex="1">
          <mxGeometry x="560" y="200" width="120" height="60" as="geometry" />
        </mxCell>
        <mxCell id="lil-dD8LJXTdzVfpWFAo-6" value="服务器" style="rounded=1;whiteSpace=wrap;html=1;" parent="1" vertex="1">
          <mxGeometry x="707" y="200" width="120" height="60" as="geometry" />
        </mxCell>
        <mxCell id="lil-dD8LJXTdzVfpWFAo-7" value="浏览器" style="rounded=1;whiteSpace=wrap;html=1;" parent="1" vertex="1">
          <mxGeometry x="870" y="200" width="120" height="60" as="geometry" />
        </mxCell>
        <mxCell id="lil-dD8LJXTdzVfpWFAo-8" value="&#xa;&#xa;&lt;span style=&quot;color: rgb(0, 0, 0); font-family: helvetica; font-size: 12px; font-style: normal; font-weight: 400; letter-spacing: normal; text-align: center; text-indent: 0px; text-transform: none; word-spacing: 0px; background-color: rgb(248, 249, 250); display: inline; float: none;&quot;&gt;IDEA&lt;/span&gt;&#xa;&#xa;" style="shape=umlLifeline;perimeter=lifelinePerimeter;whiteSpace=wrap;html=1;container=1;collapsible=0;recursiveResize=0;outlineConnect=0;" parent="1" vertex="1">
          <mxGeometry x="110" y="320" width="100" height="620" as="geometry" />
        </mxCell>
        <mxCell id="lil-dD8LJXTdzVfpWFAo-9" value="GitLab" style="shape=umlLifeline;perimeter=lifelinePerimeter;whiteSpace=wrap;html=1;container=1;collapsible=0;recursiveResize=0;outlineConnect=0;" parent="1" vertex="1">
          <mxGeometry x="250" y="320" width="100" height="630" as="geometry" />
        </mxCell>
        <mxCell id="lil-dD8LJXTdzVfpWFAo-14" value="" style="html=1;points=[];perimeter=orthogonalPerimeter;" parent="lil-dD8LJXTdzVfpWFAo-9" vertex="1">
          <mxGeometry x="45" y="90" width="10" height="80" as="geometry" />
        </mxCell>
        <mxCell id="lil-dD8LJXTdzVfpWFAo-10" value="&lt;span style=&quot;color: rgb(0 , 0 , 0) ; font-family: &amp;#34;helvetica&amp;#34; ; font-size: 12px ; font-style: normal ; font-weight: 400 ; letter-spacing: normal ; text-align: center ; text-indent: 0px ; text-transform: none ; word-spacing: 0px ; background-color: rgb(248 , 249 , 250) ; display: inline ; float: none&quot;&gt;Jenkins&lt;/span&gt;" style="shape=umlLifeline;perimeter=lifelinePerimeter;whiteSpace=wrap;html=1;container=1;collapsible=0;recursiveResize=0;outlineConnect=0;" parent="1" vertex="1">
          <mxGeometry x="380" y="320" width="100" height="630" as="geometry" />
        </mxCell>
        <mxCell id="lil-dD8LJXTdzVfpWFAo-16" value="&lt;span&gt;receive notice&lt;/span&gt;&lt;br&gt;&lt;span&gt;execute task&lt;/span&gt;" style="html=1;points=[];perimeter=orthogonalPerimeter;" parent="lil-dD8LJXTdzVfpWFAo-10" vertex="1">
          <mxGeometry x="45" y="130" width="10" height="110" as="geometry" />
        </mxCell>
        <mxCell id="lil-dD8LJXTdzVfpWFAo-21" value="bulid project" style="html=1;points=[];perimeter=orthogonalPerimeter;" parent="lil-dD8LJXTdzVfpWFAo-10" vertex="1">
          <mxGeometry x="45" y="265" width="10" height="80" as="geometry" />
        </mxCell>
        <mxCell id="lil-dD8LJXTdzVfpWFAo-11" value="Docker" style="shape=umlLifeline;perimeter=lifelinePerimeter;whiteSpace=wrap;html=1;container=1;collapsible=0;recursiveResize=0;outlineConnect=0;" parent="1" vertex="1">
          <mxGeometry x="520" y="320" width="100" height="630" as="geometry" />
        </mxCell>
        <mxCell id="lil-dD8LJXTdzVfpWFAo-22" value="" style="html=1;points=[];perimeter=orthogonalPerimeter;" parent="lil-dD8LJXTdzVfpWFAo-11" vertex="1">
          <mxGeometry x="45" y="340" width="10" height="60" as="geometry" />
        </mxCell>
        <mxCell id="lil-dD8LJXTdzVfpWFAo-12" value="k8s" style="shape=umlLifeline;perimeter=lifelinePerimeter;whiteSpace=wrap;html=1;container=1;collapsible=0;recursiveResize=0;outlineConnect=0;" parent="1" vertex="1">
          <mxGeometry x="680" y="320" width="100" height="640" as="geometry" />
        </mxCell>
        <mxCell id="lil-dD8LJXTdzVfpWFAo-24" value="create new container&lt;br&gt;&lt;br&gt;run new container" style="html=1;points=[];perimeter=orthogonalPerimeter;" parent="lil-dD8LJXTdzVfpWFAo-12" vertex="1">
          <mxGeometry x="45" y="380" width="10" height="60" as="geometry" />
        </mxCell>
        <mxCell id="lil-dD8LJXTdzVfpWFAo-13" value="Browser" style="shape=umlLifeline;perimeter=lifelinePerimeter;whiteSpace=wrap;html=1;container=1;collapsible=0;recursiveResize=0;outlineConnect=0;" parent="1" vertex="1">
          <mxGeometry x="840" y="320" width="100" height="640" as="geometry" />
        </mxCell>
        <mxCell id="lil-dD8LJXTdzVfpWFAo-26" value="" style="html=1;points=[];perimeter=orthogonalPerimeter;" parent="lil-dD8LJXTdzVfpWFAo-13" vertex="1">
          <mxGeometry x="45" y="460" width="10" height="50" as="geometry" />
        </mxCell>
        <mxCell id="lil-dD8LJXTdzVfpWFAo-15" value="push code" style="html=1;verticalAlign=bottom;startArrow=oval;endArrow=block;startSize=8;" parent="1" target="lil-dD8LJXTdzVfpWFAo-14" edge="1">
          <mxGeometry relative="1" as="geometry">
            <mxPoint x="159.5" y="420" as="sourcePoint" />
          </mxGeometry>
        </mxCell>
        <mxCell id="lil-dD8LJXTdzVfpWFAo-17" value="notice" style="html=1;verticalAlign=bottom;startArrow=oval;endArrow=block;startSize=8;" parent="1" source="lil-dD8LJXTdzVfpWFAo-14" target="lil-dD8LJXTdzVfpWFAo-16" edge="1">
          <mxGeometry relative="1" as="geometry">
            <mxPoint x="365" y="450" as="sourcePoint" />
          </mxGeometry>
        </mxCell>
        <mxCell id="lil-dD8LJXTdzVfpWFAo-19" value="pull code" style="html=1;verticalAlign=bottom;endArrow=open;dashed=1;endSize=8;exitX=0.638;exitY=1.034;exitDx=0;exitDy=0;exitPerimeter=0;" parent="1" edge="1">
          <mxGeometry x="-0.0692" relative="1" as="geometry">
            <mxPoint x="431.3800000000001" y="567.74" as="sourcePoint" />
            <mxPoint x="299.5" y="567.74" as="targetPoint" />
            <mxPoint as="offset" />
          </mxGeometry>
        </mxCell>
        <mxCell id="lil-dD8LJXTdzVfpWFAo-23" value="push images to remote" style="html=1;verticalAlign=bottom;startArrow=oval;endArrow=block;startSize=8;" parent="1" source="lil-dD8LJXTdzVfpWFAo-10" target="lil-dD8LJXTdzVfpWFAo-22" edge="1">
          <mxGeometry relative="1" as="geometry">
            <mxPoint x="505" y="650" as="sourcePoint" />
          </mxGeometry>
        </mxCell>
        <mxCell id="lil-dD8LJXTdzVfpWFAo-25" value="pull images to server" style="html=1;verticalAlign=bottom;startArrow=circle;startFill=1;endArrow=open;startSize=6;endSize=8;exitX=1.024;exitY=0.071;exitDx=0;exitDy=0;exitPerimeter=0;" parent="1" source="lil-dD8LJXTdzVfpWFAo-24" target="lil-dD8LJXTdzVfpWFAo-11" edge="1">
          <mxGeometry width="80" relative="1" as="geometry">
            <mxPoint x="610" y="770" as="sourcePoint" />
            <mxPoint x="569" y="740" as="targetPoint" />
            <Array as="points" />
          </mxGeometry>
        </mxCell>
        <mxCell id="lil-dD8LJXTdzVfpWFAo-27" value="use new function" style="html=1;verticalAlign=bottom;startArrow=oval;startFill=1;endArrow=block;startSize=8;" parent="1" target="lil-dD8LJXTdzVfpWFAo-26" edge="1">
          <mxGeometry width="60" relative="1" as="geometry">
            <mxPoint x="729.0035294117646" y="779.9999999999998" as="sourcePoint" />
            <mxPoint x="888.01" y="780" as="targetPoint" />
            <Array as="points">
              <mxPoint x="808.01" y="780" />
            </Array>
          </mxGeometry>
        </mxCell>
      </root>
    </mxGraphModel>
  </diagram>
</mxfile>
